<?xml version="1.0" encoding="UTF-8"?>
<!DOCTYPE svg PUBLIC "-//W3C//DTD SVG 1.1//EN" "http://www.w3.org/Graphics/SVG/1.1/DTD/svg11.dtd">
<svg xmlns="http://www.w3.org/2000/svg" version="1.1" width="185px" height="191px" style="shape-rendering:geometricPrecision; text-rendering:geometricPrecision; image-rendering:optimizeQuality; fill-rule:evenodd; clip-rule:evenodd" xmlns:xlink="http://www.w3.org/1999/xlink">
<g><path style="opacity:1" fill="#82090c" d="M 115.5,17.5 C 110.01,16.6508 104.676,15.3175 99.5,13.5C 98.0921,12.7568 96.7588,11.9234 95.5,11C 68.3717,7.42659 45.705,15.5933 27.5,35.5C 37.2409,21.6329 50.5742,13.1329 67.5,10C 84.5264,6.69271 100.526,9.19271 115.5,17.5 Z"/></g>
<g><path style="opacity:1" fill="#d40303" d="M 115.5,17.5 C 116.634,20.0338 118.634,21.3671 121.5,21.5C 122.539,23.5311 124.205,24.8645 126.5,25.5C 128.167,26.8333 129.833,28.1667 131.5,29.5C 132.08,31.7488 133.413,33.4154 135.5,34.5C 137.072,39.2687 139.738,43.2687 143.5,46.5C 143.166,49.491 144.166,51.8243 146.5,53.5C 146.259,55.8984 146.926,57.8984 148.5,59.5C 148.922,65.6909 149.589,71.8576 150.5,78C 149.982,83.1584 149.649,88.3251 149.5,93.5C 149.5,93.8333 149.5,94.1667 149.5,94.5C 145.397,98.9382 143.397,104.272 143.5,110.5C 141.801,112.566 140.468,114.9 139.5,117.5C 137.727,118.388 136.394,119.721 135.5,121.5C 137.192,123.205 138.525,125.205 139.5,127.5C 138.726,128.711 137.893,128.711 137,127.5C 136.556,132.112 134.056,134.446 129.5,134.5C 129.592,130.929 127.926,129.762 124.5,131C 123.748,131.671 123.414,132.504 123.5,133.5C 122.833,134.167 122.167,134.833 121.5,135.5C 115.413,136.907 110.079,139.574 105.5,143.5C 104.833,143.5 104.167,143.5 103.5,143.5C 100.572,143.565 97.9052,144.232 95.5,145.5C 86.1667,145.5 76.8333,145.5 67.5,145.5C 60.7,141.675 53.3667,139.008 45.5,137.5C 44.3862,136.115 43.3862,134.615 42.5,133C 40.1037,131.065 37.6037,129.231 35,127.5C 35.2626,126.049 35.0959,124.716 34.5,123.5C 33.914,123.709 33.414,124.043 33,124.5C 31.6545,122.658 29.8211,121.658 27.5,121.5C 26.8645,119.205 25.5311,117.539 23.5,116.5C 22.0937,116.027 21.427,115.027 21.5,113.5C 19.9946,108.503 17.9946,103.836 15.5,99.5C 14.1896,92.9148 13.5229,86.2481 13.5,79.5C 13.7471,72.4398 14.4137,65.4398 15.5,58.5C 15.5,58.1667 15.5,57.8333 15.5,57.5C 16.4584,57.0472 17.2917,56.3805 18,55.5C 19.1396,52.8981 19.9729,50.2314 20.5,47.5C 22.1033,47.6882 23.4366,47.1882 24.5,46C 23.5939,44.3005 23.2606,42.4672 23.5,40.5C 25.5869,39.4154 26.9202,37.7488 27.5,35.5C 45.705,15.5933 68.3717,7.42659 95.5,11C 96.7588,11.9234 98.0921,12.7568 99.5,13.5C 104.676,15.3175 110.01,16.6508 115.5,17.5 Z M 71.5,22.5 C 80.2,22.2895 88.8667,22.6228 97.5,23.5C 99.2143,24.7384 101.214,25.405 103.5,25.5C 108.163,28.1653 112.83,30.832 117.5,33.5C 118.5,35.1667 119.833,36.5 121.5,37.5C 122.5,39.1667 123.833,40.5 125.5,41.5C 126.124,43.754 127.457,45.4206 129.5,46.5C 129.328,47.4916 129.662,48.1583 130.5,48.5C 133.242,53.7511 135.575,59.0845 137.5,64.5C 137.5,64.8333 137.5,65.1667 137.5,65.5C 138.833,74.1667 138.833,82.8333 137.5,91.5C 135.86,96.081 134.193,100.748 132.5,105.5C 130.674,107.147 129.34,109.147 128.5,111.5C 127.167,112.833 125.833,114.167 124.5,115.5C 122.413,116.585 121.08,118.251 120.5,120.5C 118.596,120.738 117.262,121.738 116.5,123.5C 113.802,123.845 111.802,125.178 110.5,127.5C 107.011,128.658 103.678,129.991 100.5,131.5C 97.9327,131.721 95.5994,132.388 93.5,133.5C 93.1667,133.5 92.8333,133.5 92.5,133.5C 82.3567,135.044 72.3567,134.377 62.5,131.5C 61.2196,130.069 59.5529,129.402 57.5,129.5C 54.3649,127.761 51.3649,125.761 48.5,123.5C 48.1667,123.5 47.8333,123.5 47.5,123.5C 46.4206,121.457 44.754,120.124 42.5,119.5C 40.8333,117.167 38.8333,115.167 36.5,113.5C 36.573,111.973 35.9063,110.973 34.5,110.5C 33.8897,108.566 32.8897,106.899 31.5,105.5C 30.4031,102.314 29.0697,99.3135 27.5,96.5C 27.5,96.1667 27.5,95.8333 27.5,95.5C 25.7509,86.9486 25.0842,78.2819 25.5,69.5C 25.5,69.1667 25.5,68.8333 25.5,68.5C 26.7909,63.6055 28.1242,58.6055 29.5,53.5C 30.3382,53.1583 30.6716,52.4916 30.5,51.5C 34.1558,48.1967 36.8225,44.1967 38.5,39.5C 38.8333,39.5 39.1667,39.5 39.5,39.5C 42.1667,38.8333 43.8333,37.1667 44.5,34.5C 45.1667,34.5 45.5,34.1667 45.5,33.5C 49.9537,30.7706 54.6204,28.2706 59.5,26C 63.313,24.228 67.313,23.3947 71.5,23.5C 71.5,23.1667 71.5,22.8333 71.5,22.5 Z M 78.5,40.5 C 83.5275,40.5029 88.5275,40.8363 93.5,41.5C 94.8062,42.4674 95.4729,43.8007 95.5,45.5C 89.8532,46.0589 84.1865,46.3922 78.5,46.5C 78.5654,46.0618 78.3988,45.7284 78,45.5C 76.2663,46.2489 74.433,46.7489 72.5,47C 71.944,47.3826 71.6107,47.8826 71.5,48.5C 69.597,48.7959 67.9303,49.4625 66.5,50.5C 64.9731,50.427 63.9731,51.0937 63.5,52.5C 60.2876,52.7124 58.2876,54.3791 57.5,57.5C 56.5,58.8333 55.5,60.1667 54.5,61.5C 53.0937,61.9731 52.427,62.9731 52.5,64.5C 50.9192,66.1417 50.2525,68.1417 50.5,70.5C 49.7469,74.5169 49.0802,78.6836 48.5,83C 48.8082,84.4595 49.4749,85.6261 50.5,86.5C 50.5,87.1667 50.5,87.8333 50.5,88.5C 49.9388,91.0403 50.6055,93.5403 52.5,96C 51.4293,96.8518 50.4293,97.6851 49.5,98.5C 47.0743,95.9875 45.4076,92.9875 44.5,89.5C 43.1667,82.5 43.1667,75.5 44.5,68.5C 48.7441,57.5924 56.0775,49.5924 66.5,44.5C 67.9952,44.0113 69.3285,43.3446 70.5,42.5C 73.3725,42.1977 76.0392,41.531 78.5,40.5 Z"/></g>
<g><path style="opacity:1" fill="#86080d" d="M 115.5,17.5 C 118.198,17.8449 120.198,19.1782 121.5,21.5C 118.634,21.3671 116.634,20.0338 115.5,17.5 Z"/></g>
<g><path style="opacity:0.024" fill="#3a0402" d="M 71.5,22.5 C 71.5,22.1667 71.5,21.8333 71.5,21.5C 72.5,21.5 73.5,21.5 74.5,21.5C 81.5079,21.3337 88.5079,21.5004 95.5,22C 96.4158,22.2784 97.0825,22.7784 97.5,23.5C 88.8667,22.6228 80.2,22.2895 71.5,22.5 Z"/></g>
<g><path style="opacity:1" fill="#7e090f" d="M 121.5,21.5 C 123.754,22.1237 125.421,23.457 126.5,25.5C 124.205,24.8645 122.539,23.5311 121.5,21.5 Z"/></g>
<g><path style="opacity:0.835" fill="#500704" d="M 97.5,23.5 C 99.8984,23.2594 101.898,23.9261 103.5,25.5C 101.214,25.405 99.2143,24.7384 97.5,23.5 Z"/></g>
<g><path style="opacity:1" fill="#ac0a0b" d="M 74.5,21.5 C 81.9887,20.3443 89.6554,20.1777 97.5,21C 102.348,23.3416 107.348,25.3416 112.5,27C 115.021,28.5579 116.688,30.7245 117.5,33.5C 112.83,30.832 108.163,28.1653 103.5,25.5C 101.898,23.9261 99.8984,23.2594 97.5,23.5C 97.0825,22.7784 96.4158,22.2784 95.5,22C 88.5079,21.5004 81.5079,21.3337 74.5,21.5 Z"/></g>
<g><path style="opacity:1" fill="#79070c" d="M 71.5,21.5 C 71.5,21.8333 71.5,22.1667 71.5,22.5C 71.5,22.8333 71.5,23.1667 71.5,23.5C 67.313,23.3947 63.313,24.228 59.5,26C 54.6204,28.2706 49.9537,30.7706 45.5,33.5C 45.4142,32.5041 45.7476,31.6708 46.5,31C 49.2126,29.3341 51.8793,27.6674 54.5,26C 58.175,25.4434 61.5083,24.1101 64.5,22C 66.8098,21.5034 69.1432,21.3367 71.5,21.5 Z"/></g>
<g><path style="opacity:0.388" fill="#323232" d="M 90.5,27.5 C 87.15,27.3865 83.8167,27.0531 80.5,26.5C 76.4903,27.1699 72.4903,27.8366 68.5,28.5C 69.9069,27.5751 71.4069,26.5751 73,25.5C 78.1593,25.5319 83.326,25.5319 88.5,25.5C 89.7133,25.7472 90.38,26.4138 90.5,27.5 Z"/></g>
<g><path style="opacity:1" fill="#f9f9f9" d="M 90.5,27.5 C 91.1667,27.5 91.8333,27.5 92.5,27.5C 93.209,28.404 94.209,28.7373 95.5,28.5C 95.8333,28.5 96.1667,28.5 96.5,28.5C 100.424,30.1472 104.424,31.8139 108.5,33.5C 108.81,35.1436 109.81,36.1436 111.5,36.5C 111.833,36.5 112.167,36.5 112.5,36.5C 113.659,38.2503 115.326,39.2503 117.5,39.5C 118.08,41.7488 119.413,43.4154 121.5,44.5C 122.338,44.8417 122.672,45.5084 122.5,46.5C 123.5,48.1667 124.833,49.5 126.5,50.5C 128.592,53.0884 129.925,56.0884 130.5,59.5C 130.41,62.1522 131.076,64.4855 132.5,66.5C 133.473,68.9479 133.806,71.6146 133.5,74.5C 133.249,79.5068 132.916,84.5068 132.5,89.5C 132.834,92.188 132.168,94.5214 130.5,96.5C 129.655,97.6715 128.989,99.0048 128.5,100.5C 121.646,115.672 109.98,125.005 93.5,128.5C 91.7085,128.366 90.0418,128.699 88.5,129.5C 81.093,130.794 73.7597,130.294 66.5,128C 61.1363,125.649 55.8029,123.316 50.5,121C 49.7476,120.329 49.4142,119.496 49.5,118.5C 49.0269,117.094 48.0269,116.427 46.5,116.5C 46.0269,115.094 45.0269,114.427 43.5,114.5C 43.4456,112.368 42.4456,111.035 40.5,110.5C 40.5,109.167 39.8333,108.5 38.5,108.5C 37.257,103.75 35.257,99.4164 32.5,95.5C 31.8902,94.609 31.5569,93.609 31.5,92.5C 31.7947,90.2646 31.4614,88.2646 30.5,86.5C 29.0761,79.4297 29.4095,72.4297 31.5,65.5C 32.2341,64.2921 32.5674,62.9587 32.5,61.5C 32.4021,59.4471 33.0687,57.7804 34.5,56.5C 35.6737,55.4863 36.3404,54.153 36.5,52.5C 36.2627,51.209 36.596,50.209 37.5,49.5C 39.5,48.1667 41.1667,46.5 42.5,44.5C 42.5,44.1667 42.5,43.8333 42.5,43.5C 44.8585,41.4707 47.1918,39.4707 49.5,37.5C 50.1667,37.5 50.5,37.1667 50.5,36.5C 52.8525,35.6597 54.8525,34.3264 56.5,32.5C 57.3149,31.5707 58.1482,30.5707 59,29.5C 59.6708,30.2524 60.5041,30.5858 61.5,30.5C 62.791,30.7373 63.791,30.404 64.5,29.5C 65.5676,28.5655 66.901,28.2322 68.5,28.5C 72.4903,27.8366 76.4903,27.1699 80.5,26.5C 83.8167,27.0531 87.15,27.3865 90.5,27.5 Z M 78.5,40.5 C 83.5275,40.5029 88.5275,40.8363 93.5,41.5C 94.8062,42.4674 95.4729,43.8007 95.5,45.5C 89.8532,46.0589 84.1865,46.3922 78.5,46.5C 78.5654,46.0618 78.3988,45.7284 78,45.5C 76.2663,46.2489 74.433,46.7489 72.5,47C 71.944,47.3826 71.6107,47.8826 71.5,48.5C 69.597,48.7959 67.9303,49.4625 66.5,50.5C 64.9731,50.427 63.9731,51.0937 63.5,52.5C 60.2876,52.7124 58.2876,54.3791 57.5,57.5C 56.5,58.8333 55.5,60.1667 54.5,61.5C 53.0937,61.9731 52.427,62.9731 52.5,64.5C 50.9192,66.1417 50.2525,68.1417 50.5,70.5C 49.7469,74.5169 49.0802,78.6836 48.5,83C 48.8082,84.4595 49.4749,85.6261 50.5,86.5C 50.5,87.1667 50.5,87.8333 50.5,88.5C 49.9388,91.0403 50.6055,93.5403 52.5,96C 51.4293,96.8518 50.4293,97.6851 49.5,98.5C 47.0743,95.9875 45.4076,92.9875 44.5,89.5C 43.1667,82.5 43.1667,75.5 44.5,68.5C 48.7441,57.5924 56.0775,49.5924 66.5,44.5C 67.9952,44.0113 69.3285,43.3446 70.5,42.5C 73.3725,42.1977 76.0392,41.531 78.5,40.5 Z"/></g>
<g><path style="opacity:0.263" fill="#303030" d="M 95.5,28.5 C 94.209,28.7373 93.209,28.404 92.5,27.5C 93.779,26.2848 94.779,26.6182 95.5,28.5 Z"/></g>
<g><path style="opacity:0.01" fill="#1c1c1c" d="M 108.5,33.5 C 104.424,31.8139 100.424,30.1472 96.5,28.5C 96.4346,28.0618 96.6012,27.7284 97,27.5C 99.0715,28.5248 101.238,29.3581 103.5,30C 105.584,30.6972 107.251,31.8639 108.5,33.5 Z"/></g>
<g><path style="opacity:0.247" fill="#2a2e2a" d="M 64.5,29.5 C 63.791,30.404 62.791,30.7373 61.5,30.5C 62.1054,28.5188 63.1054,28.1854 64.5,29.5 Z"/></g>
<g><path style="opacity:0.702" fill="#5d0509" d="M 131.5,29.5 C 133.587,30.5846 134.92,32.2512 135.5,34.5C 133.413,33.4154 132.08,31.7488 131.5,29.5 Z"/></g>
<g><path style="opacity:0.063" fill="#191b19" d="M 56.5,32.5 C 54.8525,34.3264 52.8525,35.6597 50.5,36.5C 51.8021,34.1782 53.8021,32.8449 56.5,32.5 Z"/></g>
<g><path style="opacity:0.851" fill="#6b6a69" d="M 108.5,33.5 C 110.19,33.8564 111.19,34.8564 111.5,36.5C 109.81,36.1436 108.81,35.1436 108.5,33.5 Z"/></g>
<g><path style="opacity:1" fill="#86080c" d="M 117.5,33.5 C 120.179,33.5246 121.512,34.858 121.5,37.5C 119.833,36.5 118.5,35.1667 117.5,33.5 Z"/></g>
<g><path style="opacity:0.78" fill="#670d11" d="M 44.5,34.5 C 43.8333,37.1667 42.1667,38.8333 39.5,39.5C 40.1667,36.8333 41.8333,35.1667 44.5,34.5 Z"/></g>
<g><path style="opacity:0.071" fill="#282828" d="M 112.5,36.5 C 114.674,36.7497 116.341,37.7497 117.5,39.5C 115.326,39.2503 113.659,38.2503 112.5,36.5 Z"/></g>
<g><path style="opacity:0.678" fill="#620505" d="M 27.5,35.5 C 26.9202,37.7488 25.5869,39.4154 23.5,40.5C 24.0798,38.2512 25.4131,36.5846 27.5,35.5 Z"/></g>
<g><path style="opacity:1" fill="#7e060a" d="M 121.5,37.5 C 124.179,37.5246 125.512,38.858 125.5,41.5C 123.833,40.5 122.5,39.1667 121.5,37.5 Z"/></g>
<g><path style="opacity:0.816" fill="#b8b8b8" d="M 78.5,40.5 C 80.134,39.8389 81.9674,39.5056 84,39.5C 87.4511,39.4205 90.6177,40.0872 93.5,41.5C 88.5275,40.8363 83.5275,40.5029 78.5,40.5 Z"/></g>
<g><path style="opacity:0.886" fill="#5a5d5c" d="M 117.5,39.5 C 119.587,40.5846 120.92,42.2512 121.5,44.5C 119.413,43.4154 118.08,41.7488 117.5,39.5 Z"/></g>
<g><path style="opacity:0.318" fill="#272827" d="M 49.5,37.5 C 47.1918,39.4707 44.8585,41.4707 42.5,43.5C 42.0618,43.5654 41.7284,43.3988 41.5,43C 43.5463,40.0973 46.213,38.264 49.5,37.5 Z"/></g>
<g><path style="opacity:0.973" fill="#5f050a" d="M 125.5,41.5 C 127.531,42.5387 128.864,44.2054 129.5,46.5C 127.457,45.4206 126.124,43.754 125.5,41.5 Z"/></g>
<g><path style="opacity:0.176" fill="#5e5e5e" d="M 70.5,42.5 C 69.3285,43.3446 67.9952,44.0113 66.5,44.5C 67.1834,42.8235 68.5168,42.1568 70.5,42.5 Z"/></g>
<g><path style="opacity:1" fill="#8d090d" d="M 135.5,34.5 C 139.664,37.4929 142.331,41.4929 143.5,46.5C 139.738,43.2687 137.072,39.2687 135.5,34.5 Z"/></g>
<g><path style="opacity:0.31" fill="#2d3130" d="M 42.5,44.5 C 41.1667,46.5 39.5,48.1667 37.5,49.5C 38.1667,46.8333 39.8333,45.1667 42.5,44.5 Z"/></g>
<g><path style="opacity:0.259" fill="#333333" d="M 78.5,46.5 C 78.5,46.8333 78.5,47.1667 78.5,47.5C 76.0971,47.448 73.7638,47.7814 71.5,48.5C 71.6107,47.8826 71.944,47.3826 72.5,47C 74.433,46.7489 76.2663,46.2489 78,45.5C 78.3988,45.7284 78.5654,46.0618 78.5,46.5 Z"/></g>
<g><path style="opacity:0.884" fill="#8e8e8e" d="M 95.5,45.5 C 90.2649,47.45 84.5982,48.1167 78.5,47.5C 78.5,47.1667 78.5,46.8333 78.5,46.5C 84.1865,46.3922 89.8532,46.0589 95.5,45.5 Z"/></g>
<g><path style="opacity:0.008" fill="#222524" d="M 122.5,46.5 C 124.833,46.8333 126.167,48.1667 126.5,50.5C 124.833,49.5 123.5,48.1667 122.5,46.5 Z"/></g>
<g><path style="opacity:0.541" fill="#6a070b" d="M 38.5,39.5 C 36.8225,44.1967 34.1558,48.1967 30.5,51.5C 31.7734,48.3914 33.2734,45.3914 35,42.5C 36.0391,41.2899 37.2058,40.2899 38.5,39.5 Z"/></g>
<g><path style="opacity:1" fill="#650609" d="M 130.5,48.5 C 132.433,49.6417 133.933,51.3083 135,53.5C 136.899,56.8758 137.732,60.5425 137.5,64.5C 135.575,59.0845 133.242,53.7511 130.5,48.5 Z"/></g>
<g><path style="opacity:1" fill="#7b0b0e" d="M 143.5,46.5 C 145.065,48.5093 146.065,50.8427 146.5,53.5C 144.166,51.8243 143.166,49.491 143.5,46.5 Z"/></g>
<g><path style="opacity:0.584" fill="#575757" d="M 66.5,50.5 C 66.0269,51.9063 65.0269,52.573 63.5,52.5C 63.9731,51.0937 64.9731,50.427 66.5,50.5 Z"/></g>
<g><path style="opacity:0.357" fill="#424242" d="M 63.5,52.5 C 61.5248,54.137 59.5248,55.8036 57.5,57.5C 58.2876,54.3791 60.2876,52.7124 63.5,52.5 Z"/></g>
<g><path style="opacity:1" fill="#a40c0e" d="M 23.5,40.5 C 23.2606,42.4672 23.5939,44.3005 24.5,46C 23.4366,47.1882 22.1033,47.6882 20.5,47.5C 19.9729,50.2314 19.1396,52.8981 18,55.5C 17.2917,56.3805 16.4584,57.0472 15.5,57.5C 16.8649,51.1085 19.5316,45.4419 23.5,40.5 Z"/></g>
<g><path style="opacity:0.227" fill="#444745" d="M 36.5,52.5 C 36.3404,54.153 35.6737,55.4863 34.5,56.5C 34.2291,54.6203 34.8958,53.287 36.5,52.5 Z"/></g>
<g><path style="opacity:0.745" fill="#750709" d="M 146.5,53.5 C 148.074,55.1016 148.741,57.1016 148.5,59.5C 146.926,57.8984 146.259,55.8984 146.5,53.5 Z"/></g>
<g><path style="opacity:1" fill="#8c0b0d" d="M 29.5,53.5 C 28.1242,58.6055 26.7909,63.6055 25.5,68.5C 25.6133,63.482 25.9466,58.482 26.5,53.5C 27.5,53.5 28.5,53.5 29.5,53.5 Z"/></g>
<g><path style="opacity:0.824" fill="#757676" d="M 130.5,59.5 C 132.163,61.4385 132.829,63.7718 132.5,66.5C 131.076,64.4855 130.41,62.1522 130.5,59.5 Z"/></g>
<g><path style="opacity:0.01" fill="#1e1f1e" d="M 32.5,61.5 C 32.5674,62.9587 32.2341,64.2921 31.5,65.5C 30.5291,64.0379 30.8624,62.7046 32.5,61.5 Z"/></g>
<g><path style="opacity:0.2" fill="#474747" d="M 54.5,61.5 C 54.573,63.0269 53.9063,64.0269 52.5,64.5C 52.427,62.9731 53.0937,61.9731 54.5,61.5 Z"/></g>
<g><path style="opacity:1" fill="#7c080b" d="M 148.5,59.5 C 150.863,65.4859 151.863,71.8193 151.5,78.5C 151.666,83.7551 150.999,88.7551 149.5,93.5C 149.649,88.3251 149.982,83.1584 150.5,78C 149.589,71.8576 148.922,65.6909 148.5,59.5 Z"/></g>
<g><path style="opacity:0.714" fill="#7b7b7b" d="M 50.5,70.5 C 50.5,75.8333 50.5,81.1667 50.5,86.5C 49.4749,85.6261 48.8082,84.4595 48.5,83C 49.0802,78.6836 49.7469,74.5169 50.5,70.5 Z"/></g>
<g><path style="opacity:1" fill="#7c0b0f" d="M 15.5,58.5 C 14.4137,65.4398 13.7471,72.4398 13.5,79.5C 13.5229,86.2481 14.1896,92.9148 15.5,99.5C 10.1669,85.8318 10.1669,72.1651 15.5,58.5 Z"/></g>
<g><path style="opacity:0.678" fill="#939393" d="M 44.5,68.5 C 43.1667,75.5 43.1667,82.5 44.5,89.5C 41.8333,82.5 41.8333,75.5 44.5,68.5 Z"/></g>
<g><path style="opacity:0.733" fill="#656466" d="M 133.5,74.5 C 134.32,78.2882 134.654,82.1215 134.5,86C 133.915,87.3024 133.249,88.469 132.5,89.5C 132.916,84.5068 133.249,79.5068 133.5,74.5 Z"/></g>
<g><path style="opacity:0.192" fill="#430704" d="M 137.5,65.5 C 138.117,65.6107 138.617,65.944 139,66.5C 139.667,74.1667 139.667,81.8333 139,89.5C 138.722,90.4158 138.222,91.0825 137.5,91.5C 138.833,82.8333 138.833,74.1667 137.5,65.5 Z"/></g>
<g><path style="opacity:0.286" fill="#312d2e" d="M 30.5,86.5 C 31.4614,88.2646 31.7947,90.2646 31.5,92.5C 30.6942,91.0028 30.0276,89.3361 29.5,87.5C 29.6236,86.8933 29.9569,86.56 30.5,86.5 Z"/></g>
<g><path style="opacity:1" fill="#73090b" d="M 25.5,69.5 C 25.0842,78.2819 25.7509,86.9486 27.5,95.5C 25.6885,93.6146 24.5218,91.2813 24,88.5C 23.3333,83.1667 23.3333,77.8333 24,72.5C 24.2321,71.2625 24.7321,70.2625 25.5,69.5 Z"/></g>
<g><path style="opacity:0.137" fill="#2d2d2d" d="M 50.5,88.5 C 51.3944,91.011 52.3944,93.511 53.5,96C 52.9681,98.0197 51.6348,98.853 49.5,98.5C 50.4293,97.6851 51.4293,96.8518 52.5,96C 50.6055,93.5403 49.9388,91.0403 50.5,88.5 Z"/></g>
<g><path style="opacity:0.22" fill="#313131" d="M 32.5,95.5 C 35.257,99.4164 37.257,103.75 38.5,108.5C 37.2101,107.942 36.3768,106.942 36,105.5C 34.5335,102.242 33.3668,98.9083 32.5,95.5 Z"/></g>
<g><path style="opacity:0.004" fill="#2c2e2d" d="M 130.5,96.5 C 130.843,98.4832 130.176,99.8166 128.5,100.5C 128.989,99.0048 129.655,97.6715 130.5,96.5 Z"/></g>
<g><path style="opacity:1" fill="#82080f" d="M 27.5,96.5 C 29.0697,99.3135 30.4031,102.314 31.5,105.5C 27.9908,103.657 26.6574,100.657 27.5,96.5 Z"/></g>
<g><path style="opacity:1" fill="#9b0b0f" d="M 149.5,94.5 C 148.469,100.267 146.469,105.601 143.5,110.5C 143.397,104.272 145.397,98.9382 149.5,94.5 Z"/></g>
<g><path style="opacity:0.925" fill="#600607" d="M 137.5,91.5 C 137.482,96.8478 135.815,101.514 132.5,105.5C 134.193,100.748 135.86,96.081 137.5,91.5 Z"/></g>
<g><path style="opacity:0.467" fill="#5a0407" d="M 132.5,105.5 C 132.155,108.198 130.822,110.198 128.5,111.5C 129.34,109.147 130.674,107.147 132.5,105.5 Z"/></g>
<g><path style="opacity:1" fill="#78040e" d="M 31.5,105.5 C 32.8897,106.899 33.8897,108.566 34.5,110.5C 32.2407,109.656 31.2407,107.989 31.5,105.5 Z"/></g>
<g><path style="opacity:0.463" fill="#494143" d="M 38.5,108.5 C 39.8333,108.5 40.5,109.167 40.5,110.5C 39.5,110.167 38.8333,109.5 38.5,108.5 Z"/></g>
<g><path style="opacity:0.682" fill="#7a070c" d="M 15.5,99.5 C 17.9946,103.836 19.9946,108.503 21.5,113.5C 18.4316,109.356 16.4316,104.689 15.5,99.5 Z"/></g>
<g><path style="opacity:0.412" fill="#530604" d="M 34.5,110.5 C 35.9063,110.973 36.573,111.973 36.5,113.5C 35.0937,113.027 34.427,112.027 34.5,110.5 Z"/></g>
<g><path style="opacity:0.016" fill="#323636" d="M 40.5,110.5 C 42.4456,111.035 43.4456,112.368 43.5,114.5C 42.0256,113.564 41.0256,112.23 40.5,110.5 Z"/></g>
<g><path style="opacity:0.647" fill="#4f0202" d="M 36.5,113.5 C 38.8333,115.167 40.8333,117.167 42.5,119.5C 39.5,118.5 37.5,116.5 36.5,113.5 Z"/></g>
<g><path style="opacity:0.302" fill="#464849" d="M 43.5,114.5 C 45.0269,114.427 46.0269,115.094 46.5,116.5C 44.9731,116.573 43.9731,115.906 43.5,114.5 Z"/></g>
<g><path style="opacity:0.98" fill="#790608" d="M 23.5,116.5 C 25.5311,117.539 26.8645,119.205 27.5,121.5C 25.457,120.421 24.1237,118.754 23.5,116.5 Z"/></g>
<g><path style="opacity:0.725" fill="#6b6b6c" d="M 46.5,116.5 C 48.0269,116.427 49.0269,117.094 49.5,118.5C 47.9731,118.573 46.9731,117.906 46.5,116.5 Z"/></g>
<g><path style="opacity:0.467" fill="#700c09" d="M 143.5,110.5 C 143.275,113.546 141.942,115.879 139.5,117.5C 140.468,114.9 141.801,112.566 143.5,110.5 Z"/></g>
<g><path style="opacity:0.396" fill="#440902" d="M 124.5,115.5 C 123.92,117.749 122.587,119.415 120.5,120.5C 121.08,118.251 122.413,116.585 124.5,115.5 Z"/></g>
<g><path style="opacity:1" fill="#900a11" d="M 128.5,111.5 C 126.807,117.86 122.807,121.86 116.5,123.5C 117.262,121.738 118.596,120.738 120.5,120.5C 122.587,119.415 123.92,117.749 124.5,115.5C 125.833,114.167 127.167,112.833 128.5,111.5 Z"/></g>
<g><path style="opacity:0.898" fill="#510707" d="M 42.5,119.5 C 44.754,120.124 46.4206,121.457 47.5,123.5C 45.2054,122.864 43.5387,121.531 42.5,119.5 Z"/></g>
<g><path style="opacity:0.902" fill="#6f0709" d="M 48.5,123.5 C 51.3649,125.761 54.3649,127.761 57.5,129.5C 52.8898,129.708 49.8898,127.708 48.5,123.5 Z"/></g>
<g><path style="opacity:0.71" fill="#580608" d="M 116.5,123.5 C 114.853,125.326 112.853,126.66 110.5,127.5C 111.802,125.178 113.802,123.845 116.5,123.5 Z"/></g>
<g><path style="opacity:1" fill="#92090c" d="M 139.5,117.5 C 139.297,119.044 138.63,120.378 137.5,121.5C 138.549,123.216 139.882,124.549 141.5,125.5C 141.649,126.552 141.483,127.552 141,128.5C 138.509,130.29 136.342,132.457 134.5,135C 132.975,136.009 131.308,136.509 129.5,136.5C 129.048,131.656 127.048,130.656 123.5,133.5C 123.414,132.504 123.748,131.671 124.5,131C 127.926,129.762 129.592,130.929 129.5,134.5C 134.056,134.446 136.556,132.112 137,127.5C 137.893,128.711 138.726,128.711 139.5,127.5C 138.525,125.205 137.192,123.205 135.5,121.5C 136.394,119.721 137.727,118.388 139.5,117.5 Z"/></g>
<g><path style="opacity:0.243" fill="#2b2b29" d="M 93.5,128.5 C 92.0045,130.345 90.3379,130.678 88.5,129.5C 90.0418,128.699 91.7085,128.366 93.5,128.5 Z"/></g>
<g><path style="opacity:1" fill="#a1090c" d="M 27.5,121.5 C 29.8211,121.658 31.6545,122.658 33,124.5C 33.414,124.043 33.914,123.709 34.5,123.5C 35.0959,124.716 35.2626,126.049 35,127.5C 37.6037,129.231 40.1037,131.065 42.5,133C 43.3862,134.615 44.3862,136.115 45.5,137.5C 38.525,133.188 32.525,127.854 27.5,121.5 Z"/></g>
<g><path style="opacity:0.769" fill="#660706" d="M 110.5,127.5 C 107.972,130.418 104.639,131.752 100.5,131.5C 103.678,129.991 107.011,128.658 110.5,127.5 Z"/></g>
<g><path style="opacity:0.224" fill="#3d0501" d="M 57.5,129.5 C 59.5529,129.402 61.2196,130.069 62.5,131.5C 60.4471,131.598 58.7804,130.931 57.5,129.5 Z"/></g>
<g><path style="opacity:0.247" fill="#370603" d="M 100.5,131.5 C 98.5615,133.163 96.2282,133.829 93.5,133.5C 95.5994,132.388 97.9327,131.721 100.5,131.5 Z"/></g>
<g><path style="opacity:0.231" fill="#570407" d="M 62.5,131.5 C 72.3567,134.377 82.3567,135.044 92.5,133.5C 92.3893,134.117 92.056,134.617 91.5,135C 82.0369,136.011 72.7035,135.344 63.5,133C 62.944,132.617 62.6107,132.117 62.5,131.5 Z"/></g>
<g><path style="opacity:0.922" fill="#710709" d="M 154.5,134.5 C 156.587,135.585 157.92,137.251 158.5,139.5C 156.413,138.415 155.08,136.749 154.5,134.5 Z"/></g>
<g><path style="opacity:0.5" fill="#0e0202" d="M 141.5,125.5 C 142.907,128.031 144.573,130.365 146.5,132.5C 143.5,135.833 140.5,139.167 137.5,142.5C 135.592,143.486 134.592,145.152 134.5,147.5C 132.771,146.883 131.271,145.883 130,144.5C 130.223,141.743 130.056,139.076 129.5,136.5C 131.308,136.509 132.975,136.009 134.5,135C 136.342,132.457 138.509,130.29 141,128.5C 141.483,127.552 141.649,126.552 141.5,125.5 Z"/></g>
<g><path style="opacity:1" fill="#860d12" d="M 154.5,134.5 C 152.695,133.091 150.695,132.591 148.5,133C 145.236,136.773 141.57,139.94 137.5,142.5C 140.5,139.167 143.5,135.833 146.5,132.5C 150.272,129.318 152.938,129.984 154.5,134.5 Z"/></g>
<g><path style="opacity:1" fill="#980a0b" d="M 45.5,137.5 C 53.3667,139.008 60.7,141.675 67.5,145.5C 59.5228,144.348 52.1895,141.682 45.5,137.5 Z"/></g>
<g><path style="opacity:1" fill="#83090c" d="M 121.5,135.5 C 116.764,139.202 111.43,141.868 105.5,143.5C 110.079,139.574 115.413,136.907 121.5,135.5 Z"/></g>
<g><path style="opacity:0.941" fill="#72080b" d="M 158.5,139.5 C 160.587,140.585 161.92,142.251 162.5,144.5C 160.413,143.415 159.08,141.749 158.5,139.5 Z"/></g>
<g><path style="opacity:0.173" fill="#5f0604" d="M 103.5,143.5 C 101.162,145.04 98.4951,145.706 95.5,145.5C 97.9052,144.232 100.572,143.565 103.5,143.5 Z"/></g>
<g><path style="opacity:0.863" fill="#6d0a0f" d="M 67.5,145.5 C 76.8333,145.5 86.1667,145.5 95.5,145.5C 92.2231,146.633 88.7231,147.299 85,147.5C 78.9915,147.056 73.1582,146.39 67.5,145.5 Z"/></g>
<g><path style="opacity:1" fill="#d10303" d="M 154.5,134.5 C 155.08,136.749 156.413,138.415 158.5,139.5C 159.08,141.749 160.413,143.415 162.5,144.5C 163.694,148.363 166.027,151.363 169.5,153.5C 169.894,155.71 171.227,157.043 173.5,157.5C 173.634,160.768 175.134,163.102 178,164.5C 178.494,166.134 178.66,167.801 178.5,169.5C 175.071,170.427 172.738,172.594 171.5,176C 167.673,178.342 163.673,178.842 159.5,177.5C 158.864,175.205 157.531,173.539 155.5,172.5C 154.5,172.167 153.833,171.5 153.5,170.5C 152.899,165.612 150.232,162.612 145.5,161.5C 143.185,156.882 140.352,152.549 137,148.5C 136.322,146.402 136.489,144.402 137.5,142.5C 141.57,139.94 145.236,136.773 148.5,133C 150.695,132.591 152.695,133.091 154.5,134.5 Z"/></g>
<g><path style="opacity:1" fill="#73090a" d="M 162.5,144.5 C 165.209,147.208 167.542,150.208 169.5,153.5C 166.027,151.363 163.694,148.363 162.5,144.5 Z"/></g>
<g><path style="opacity:0.929" fill="#7a0b0d" d="M 137.5,142.5 C 136.489,144.402 136.322,146.402 137,148.5C 140.352,152.549 143.185,156.882 145.5,161.5C 141.836,156.842 138.169,152.175 134.5,147.5C 134.592,145.152 135.592,143.486 137.5,142.5 Z"/></g>
<g><path style="opacity:0.475" fill="#6b0609" d="M 169.5,153.5 C 171.773,153.957 173.106,155.29 173.5,157.5C 171.227,157.043 169.894,155.71 169.5,153.5 Z"/></g>
<g><path style="opacity:1" fill="#99080d" d="M 145.5,161.5 C 150.232,162.612 152.899,165.612 153.5,170.5C 150.862,167.526 148.195,164.526 145.5,161.5 Z"/></g>
<g><path style="opacity:0.855" fill="#7e0a0e" d="M 173.5,157.5 C 176.161,160.171 178.494,163.171 180.5,166.5C 180.058,167.739 179.391,168.739 178.5,169.5C 178.66,167.801 178.494,166.134 178,164.5C 175.134,163.102 173.634,160.768 173.5,157.5 Z"/></g>
<g><path style="opacity:1" fill="#8e0b0c" d="M 178.5,169.5 C 176.015,174.15 172.348,177.65 167.5,180C 164.063,181.094 161.396,180.26 159.5,177.5C 163.673,178.842 167.673,178.342 171.5,176C 172.738,172.594 175.071,170.427 178.5,169.5 Z"/></g>
<g><path style="opacity:0.992" fill="#78050a" d="M 155.5,172.5 C 157.531,173.539 158.864,175.205 159.5,177.5C 157.457,176.421 156.124,174.754 155.5,172.5 Z"/></g>
</svg>
